<?xml version="1.0" encoding="utf-8"?>
<svg version="1.1" id="Layer_1"
xmlns="http://www.w3.org/2000/svg"
xmlns:xlink="http://www.w3.org/1999/xlink"
width="352px" height="114px"
xml:space="preserve">
<g id="PathID_1" transform="matrix(2.1223, 0, 0, 1.63898, 117.3, 71.05)" opacity="1">
<path style="fill:#56B573;fill-opacity:1" d="M6.9 0L0.6 0L14.55 -18.05L0.6 -36.05L6.85 -36.05L17.65 -22.05L14.55 -18.05L17.65 -13.95M20.8 -18L17.65 -22.05L28.45 -36.05L34.7 -36.05L20.8 -18M20.8 -18L34.7 0L28.45 0L17.65 -13.95L6.9 0L20.8 -18" />
</g>
<g id="PathID_2" transform="matrix(2.1223, 0, 0, 1.63898, 192.05, 71.05)" opacity="1">
<path style="fill:#56B573;fill-opacity:1" d="M3.65 0L3.65 -36.05L19.1 -36.05Q29.65 -36.05 29.65 -27.15Q29.65 -17.2 14.8 -14.9L13.75 -19.6Q23.8 -21.25 23.8 -26.95Q23.8 -31.3 18.7 -31.3L9.2 -31.3L9.2 0L3.65 0" />
</g>
<g id="PathID_3" transform="matrix(2.1223, 0, 0, 1.63898, 258.1, 71.05)" opacity="1">
<path style="fill:#56B573;fill-opacity:1" d="M3.65 0L3.65 -36.05L10.25 -36.05L22.8 -6.8L35.1 -36.05L41.45 -36.05L41.45 0L36.4 0L36.4 -28.25L24.8 0L20.55 0L8.75 -28.25L8.75 0L3.65 0" />
</g>
<g id="PathID_4" transform="matrix(-0.00768033, 1.7096, -1.7096, -0.00768033, 56.95, 57.25)" opacity="1">
<path style="fill:#5ABABE;fill-opacity:1" d="M25.2 -4.2Q19.55 2.65 12.1 5.2L8.7 6.1L8.55 9.35Q7.8 16.55 1.9 23.1Q-3.4 29.15 -10.05 30.55Q-17.05 32 -23.8 27.8Q-29.5 24.15 -29.95 17.4Q-30.5 10.75 -25.75 4.45Q-21.65 -0.8 -13.1 -4L-8 -5.55L-7.7 -10.35Q-6.5 -18.65 -1.8 -23.6Q3.65 -29.45 10.95 -30.6Q18.2 -31.85 23.55 -27.8Q29.8 -23 30.05 -16.45Q30.2 -10.4 25.2 -4.2" />
</g>
<g id="PathID_5" transform="matrix(-0.00768033, 1.7096, -1.7096, -0.00768033, 56.6, 57.1)" opacity="1">
<path style="fill:#56B573;fill-opacity:1" d="M8.45 -9.65L8.7 -6.55L12.1 -5.75Q19.7 -3.6 25.45 2.8Q30.6 8.7 30.5 14.8Q30.4 21.35 24.2 26.4Q18.95 30.7 11.55 29.85Q4.25 29.05 -1.3 23.55Q-6.15 18.95 -7.45 10.8Q-7.85 8.05 -7.85 5.95L-13.05 4.75Q-21.7 2.1 -25.9 -3Q-30.8 -8.95 -30.4 -15.65Q-30 -22.25 -24.35 -26.25Q-17.65 -30.8 -10.6 -29.75Q-3.95 -28.7 1.55 -23.1Q7.55 -16.85 8.45 -9.65" />
</g>
<g id="PathID_6" transform="matrix(-0.00768033, 1.7096, -1.7096, -0.00768033, 56.9, 57.85)" opacity="1">
<path style="fill:#FFFFFF;fill-opacity:1" d="M11.95 -9.85Q11.85 -4.25 8.9 -0.55L7.45 0.95L8.75 2.8Q11.5 7.2 11.15 12.75Q10.85 17.7 7.85 20.4Q4.7 23.35 -0.75 22.95Q-5.45 22.5 -8.65 18.8Q-11.8 15.15 -11.95 10.15Q-12.05 5.9 -8.7 1.6L-6.65 -0.8L-8.5 -3.65Q-11.5 -8.75 -11.1 -12.95Q-10.6 -17.95 -7.2 -20.75Q-3.75 -23.6 0.9 -22.85Q6.3 -21.95 9.3 -18.3Q12 -14.9 11.95 -9.85" />
</g>
<g id="PathID_7" transform="matrix(-0.00768033, 1.7096, -1.7096, -0.00768033, 58.05, 57.5)" opacity="1">
<path style="fill:#FFFFFF;fill-opacity:1" d="M19.75 -7.85L20.15 -7.45Q23.55 -4.5 23.85 -0.25Q24.2 5.15 21.1 8.1Q18.2 10.9 13 11.05Q7.2 11.2 2.7 8.5L0.8 7.2L-0.8 8.55Q-4.7 11.3 -10.5 11.25Q-15.7 11.15 -19.2 8.5Q-22.95 5.55 -23.75 0.25Q-24.45 -3.95 -21.75 -7.1L-21.35 -7.45Q-18.35 -10.65 -13.2 -11.05Q-8.8 -11.35 -3.55 -8.3L-1.95 -7.3L-0.7 -6.4L0.4 -7.3L1.85 -8.35Q6.4 -11.45 10.9 -11.25Q16.05 -11 19.75 -7.85" />
</g>
<g id="PathID_8" transform="matrix(0.507066, 0, 0, 0.507066, 117.85, 101.3)" opacity="1">
<path style="fill:#5ABABE;fill-opacity:1" d="M3.65 0.1L3.65 -27.45Q3.65 -37.3 13.75 -37.3Q17 -37.3 20.05 -36.15L20.05 -31.65Q16.95 -32.65 13.75 -32.65Q9.2 -32.65 9.2 -28.9L9.2 -26.7L16.95 -26.7L16.95 -22.05L9.2 -22.05L9.2 0L3.65 0.1" />
</g>
<g id="PathID_9" transform="matrix(0.507066, 0, 0, 0.507066, 129.15, 101.3)" opacity="1">
<path style="fill:#5ABABE;fill-opacity:1" d="M15.2 -4.65Q22.4 -4.65 22.4 -13.45Q22.4 -22.05 15.2 -22.05Q8 -22.05 8 -13.45Q8 -4.65 15.2 -4.65M2.45 -13.35Q2.45 -26.75 15.2 -26.75Q28 -26.75 28 -13.35Q28 0 15.2 0Q2.5 0 2.45 -13.35" />
</g>
<g id="PathID_10" transform="matrix(0.507066, 0, 0, 0.507066, 146.5, 101.3)" opacity="1">
<path style="fill:#5ABABE;fill-opacity:1" d="M3.65 0L3.65 -26.75L7.65 -26.75L8.35 -23.45Q11.2 -26.75 16.7 -26.75L16.7 -21.95Q11.8 -21.95 9.2 -19L9.2 0L3.65 0" />
</g>
<g id="PathID_11" transform="matrix(0.507066, 0, 0, 0.507066, 165.55, 101.3)" opacity="1">
<path style="fill:#5ABABE;fill-opacity:1" d="M24.3 -0.85Q20.65 0 16.9 0Q2.45 0 2.45 -13.85Q2.45 -26.75 16.9 -26.75Q20.65 -26.75 24.3 -25.9L24.3 -21.3Q20.5 -22.05 17.4 -22.05Q8 -22.05 8 -13.85Q8 -4.65 17.4 -4.65Q20.55 -4.65 24.3 -5.4L24.3 -0.85" />
</g>
<g id="PathID_12" transform="matrix(0.507066, 0, 0, 0.507066, 180.7, 101.3)" opacity="1">
<path style="fill:#5ABABE;fill-opacity:1" d="M3.65 0L3.65 -26.75L7.65 -26.75L8.35 -23.45Q11.2 -26.75 16.7 -26.75L16.7 -21.95Q11.8 -21.95 9.2 -19L9.2 0L3.65 0" />
</g>
<g id="PathID_13" transform="matrix(0.507066, 0, 0, 0.507066, 191.4, 101.3)" opacity="1">
<path style="fill:#5ABABE;fill-opacity:1" d="M25.25 -11.55L8 -11.55Q8 -4.65 17.45 -4.65Q20.8 -4.65 24.75 -5.4L24.75 -0.8Q20.9 0 15.95 0Q2.45 0 2.45 -13.65Q2.45 -26.75 15.25 -26.75Q27.6 -26.75 25.25 -11.55M8 -16.35L20.2 -16.35Q20.5 -22.1 14.55 -22.1Q8.4 -22.1 8 -16.35" />
</g>
<g id="PathID_14" transform="matrix(0.507066, 0, 0, 0.507066, 207.9, 101.3)" opacity="1">
<path style="fill:#5ABABE;fill-opacity:1" d="M2.45 -8.5Q2.45 -16.95 13.4 -16.95Q17.25 -16.95 19.6 -16.45L19.6 -18.35Q19.6 -22.05 13.15 -22.05Q9.3 -22.05 4.5 -20.85L4.5 -25.4Q9.1 -26.75 13.15 -26.75Q25.15 -26.75 25.15 -18L25.15 0L22.1 0L20.4 -1.8Q17.3 0 12.6 0Q2.45 0 2.45 -8.5M13.4 -12.25Q8 -12.25 8 -8.6Q8 -4.65 12.6 -4.65Q17.15 -4.65 19.6 -6.45L19.6 -11.85Q17.35 -12.25 13.4 -12.25" />
</g>
<g id="PathID_15" transform="matrix(0.507066, 0, 0, 0.507066, 224.45, 101.3)" opacity="1">
<path style="fill:#5ABABE;fill-opacity:1" d="M3.65 -30.9L7.4 -30.9L8.4 -26.7L14.5 -26.7L14.5 -22.05L9.2 -22.05L9.2 -7.75Q9.2 -4.65 11.8 -4.65L14.5 -4.65L14.5 0L10.65 0Q3.65 0 3.65 -7.4L3.65 -30.9" />
</g>
<g id="PathID_16" transform="matrix(0.507066, 0, 0, 0.507066, 234.85, 101.3)" opacity="1">
<path style="fill:#5ABABE;fill-opacity:1" d="M9.2 -36.05L9.2 -31.35L3.65 -31.35L3.65 -36.05L9.2 -36.05M9.2 -26.7L9.2 0L3.65 0L3.65 -26.7L9.2 -26.7" />
</g>
<g id="PathID_17" transform="matrix(0.507066, 0, 0, 0.507066, 243.15, 101.3)" opacity="1">
<path style="fill:#5ABABE;fill-opacity:1" d="M0 -26.75L5.75 -26.75L12.75 -6.55L19.75 -26.75L25.5 -26.75L14.9 0L9.95 0L0 -26.75" />
</g>
<g id="PathID_18" transform="matrix(0.507066, 0, 0, 0.507066, 258, 101.3)" opacity="1">
<path style="fill:#5ABABE;fill-opacity:1" d="M25.25 -11.55L8 -11.55Q8 -4.65 17.45 -4.65Q20.8 -4.65 24.75 -5.4L24.75 -0.8Q20.9 0 15.95 0Q2.45 0 2.45 -13.65Q2.45 -26.75 15.25 -26.75Q27.6 -26.75 25.25 -11.55M8 -16.35L20.2 -16.35Q20.5 -22.1 14.55 -22.1Q8.4 -22.1 8 -16.35" />
</g>
<g id="PathID_19" transform="matrix(0.507066, 0, 0, 0.507066, 282.8, 101.3)" opacity="1">
<path style="fill:#5ABABE;fill-opacity:1" d="M3.65 -30.9L7.4 -30.9L8.4 -26.7L14.5 -26.7L14.5 -22.05L9.2 -22.05L9.2 -7.75Q9.2 -4.65 11.8 -4.65L14.5 -4.65L14.5 0L10.65 0Q3.65 0 3.65 -7.4L3.65 -30.9" />
</g>
<g id="PathID_20" transform="matrix(0.507066, 0, 0, 0.507066, 293.2, 101.3)" opacity="1">
<path style="fill:#5ABABE;fill-opacity:1" d="M25.25 -11.55L8 -11.55Q8 -4.65 17.45 -4.65Q20.8 -4.65 24.75 -5.4L24.75 -0.8Q20.9 0 15.95 0Q2.45 0 2.45 -13.65Q2.45 -26.75 15.25 -26.75Q27.6 -26.75 25.25 -11.55M8 -16.35L20.2 -16.35Q20.5 -22.1 14.55 -22.1Q8.4 -22.1 8 -16.35" />
</g>
<g id="PathID_21" transform="matrix(0.507066, 0, 0, 0.507066, 309.7, 101.3)" opacity="1">
<path style="fill:#5ABABE;fill-opacity:1" d="M2.45 -8.5Q2.45 -16.95 13.4 -16.95Q17.25 -16.95 19.6 -16.45L19.6 -18.35Q19.6 -22.05 13.15 -22.05Q9.3 -22.05 4.5 -20.85L4.5 -25.4Q9.1 -26.75 13.15 -26.75Q25.15 -26.75 25.15 -18L25.15 0L22.1 0L20.4 -1.8Q17.3 0 12.6 0Q2.45 0 2.45 -8.5M13.4 -12.25Q8 -12.25 8 -8.6Q8 -4.65 12.6 -4.65Q17.15 -4.65 19.6 -6.45L19.6 -11.85Q17.35 -12.25 13.4 -12.25" />
</g>
<g id="PathID_22" transform="matrix(0.507066, 0, 0, 0.507066, 326.25, 101.3)" opacity="1">
<path style="fill:#5ABABE;fill-opacity:1" d="M3.65 0L3.65 -26.75L7.65 -26.75L8.3 -23.5Q12.25 -26.75 16.8 -26.75Q21.95 -26.75 23.85 -23.2Q28.45 -26.75 32.9 -26.75Q41.6 -26.75 41.6 -16.45L41.6 0L36 0L36 -16.7Q36 -21.95 31.65 -21.95Q28.3 -21.95 25.4 -18.9L25.4 0L19.85 0L19.85 -16.6Q19.85 -21.95 15.55 -21.95Q11.95 -21.95 9.2 -18.95L9.2 0L3.65 0" />
</g>
</svg>
